PathFileType	4	(X/Y/Z)	C:\Git\research_data\Projects\torsion_deformities_healthy_kinematics\simulations\P01\pre\dynamic04_l\marker_experimental.trc
DataRate	CameraRate	NumFrames	NumMarkers	Units	OrigDataRate	OrigDataStartFrame	OrigNumFrames
200	200	9	34	mm	200	261	694
Frame#	Time	C7			T10			CLAV			STRN			RBAK			LASI			RASI			SACR			LT1			LT2			LT3			LS1			LS2			LS3			LHEE			LTOE			RT1			RT2			RT3			RS1			RS2			RS3			RHEE			RTOE			LKNE			LANK			RKNE			RANK			LAJC			LKJC			RAJC			RKJC			RHJC			LHJC		
		X1	Y1	Z1	X2	Y2	Z2	X3	Y3	Z3	X4	Y4	Z4	X5	Y5	Z5	X6	Y6	Z6	X7	Y7	Z7	X8	Y8	Z8	X9	Y9	Z9	X10	Y10	Z10	X11	Y11	Z11	X12	Y12	Z12	X13	Y13	Z13	X14	Y14	Z14	X15	Y15	Z15	X16	Y16	Z16	X17	Y17	Z17	X18	Y18	Z18	X19	Y19	Z19	X20	Y20	Z20	X21	Y21	Z21	X22	Y22	Z22	X23	Y23	Z23	X24	Y24	Z24	X25	Y25	Z25	X26	Y26	Z26	X27	Y27	Z27	X28	Y28	Z28	X29	Y29	Z29	X30	Y30	Z30	X31	Y31	Z31	X32	Y32	Z32	X33	Y33	Z33	X34	Y34	Z34	

261	1.300000	-485.090515	1015.962891	-349.202209	-501.602966	837.372375	-340.617828	-367.876984	980.065430	-337.350037	-314.165802	854.893616	-327.749969	-517.132568	960.416443	-267.403320	-375.929504	673.274353	-438.034698	-368.670319	674.146912	-225.049042	-522.592407	729.978638	-326.601288	-455.101379	493.167175	-475.652130	-534.968140	437.751862	-473.180450	-403.238831	381.027161	-463.778442	-563.317322	262.301239	-474.669128	-682.860901	246.226028	-497.687897	-570.290100	166.000305	-458.814484	-736.544617	114.502357	-433.481293	-616.014893	44.729080	-413.570099	-384.687958	511.017029	-188.597504	-422.125366	425.309998	-207.232986	-281.877167	451.132751	-206.067139	-303.547241	285.122925	-215.489517	-372.895050	188.053207	-182.774887	-240.704727	214.488846	-232.194000	-313.273621	37.159119	-254.489639	-178.717621	74.913246	-281.932220	-511.733887	348.075989	-459.445465	-698.068481	84.942101	-457.152649	-329.296417	353.487305	-229.527542	-267.597260	49.966633	-229.784027	-698.483948	82.816231	-423.325653	-502.135284	333.679169	-410.955658	-274.319489	53.875530	-265.830109	-326.706360	356.895477	-283.184937	-441.194510	620.915553	-251.305053	-446.482891	620.279886	-406.466991	
262	1.305000	-478.550079	1015.798340	-347.848694	-494.761169	837.087036	-339.631317	-361.295166	980.051758	-336.290985	-307.284851	855.032410	-326.858917	-510.239349	960.015869	-265.824249	-368.419952	673.201416	-436.681366	-361.004669	674.249512	-224.333160	-515.669495	729.449341	-325.949249	-446.009552	492.590881	-475.480011	-525.189819	436.276123	-473.966034	-392.946136	380.972992	-463.838257	-555.317810	262.345032	-475.366150	-675.344666	249.385223	-497.347870	-564.623657	166.278839	-459.607483	-731.528809	119.966255	-432.969604	-614.759155	44.307514	-413.654877	-376.577698	511.157532	-188.261261	-414.512299	425.516907	-206.471466	-274.198914	450.656464	-206.522369	-296.913818	284.442535	-215.962006	-367.470093	188.527634	-182.371765	-235.477982	212.737839	-233.432434	-311.975403	37.268635	-254.448364	-176.511353	71.109451	-282.991058	-501.037506	346.746246	-460.559692	-694.407043	88.461166	-456.939056	-322.292969	353.299744	-229.409698	-265.093323	48.717136	-230.666031	-694.582336	86.288139	-423.112976	-491.651031	332.180847	-412.078705	-272.196198	52.740253	-266.626465	-320.137543	356.613983	-283.092194	-433.331746	620.880829	-250.383613	-438.735354	620.117068	-405.124357	
263	1.310000	-472.002228	1015.720032	-346.483582	-487.941864	836.893311	-338.670197	-354.708008	980.108093	-335.250092	-300.421478	855.220947	-326.028290	-503.315247	959.698792	-264.217773	-360.973785	673.156128	-435.306580	-353.358704	674.460693	-223.697235	-508.801392	728.969299	-325.301331	-436.637299	492.015411	-475.341522	-515.007446	434.682037	-474.866150	-382.179138	381.008484	-463.815002	-546.923950	262.471863	-476.070648	-667.388428	252.720383	-496.784149	-558.574585	166.697098	-460.460266	-725.957092	125.672440	-432.327057	-613.315063	44.007584	-413.736389	-368.590759	511.347229	-187.949936	-407.053314	425.776062	-205.723450	-266.698334	450.201630	-207.003403	-290.471436	283.873108	-216.389969	-362.143036	189.191772	-181.912949	-230.441696	211.149094	-234.583694	-310.861145	37.513187	-254.405167	-174.464951	67.504250	-283.760468	-489.778656	345.346344	-461.720734	-690.309082	92.231178	-456.582886	-315.498413	353.137909	-229.303528	-262.670074	47.659527	-231.404785	-690.181641	89.971176	-422.762268	-480.634644	330.642242	-413.235260	-270.148590	51.792645	-267.276459	-313.785004	356.355530	-283.007812	-425.480056	620.966040	-249.488725	-431.031063	620.015079	-403.741172	
264	1.315000	-465.447510	1015.727783	-345.113129	-481.147705	836.791931	-337.737793	-348.116364	980.231323	-334.233917	-293.580872	855.454407	-325.263916	-496.362579	959.466797	-262.591461	-353.610138	673.136230	-433.930176	-345.747070	674.778992	-223.142029	-501.989655	728.541504	-324.660828	-427.021088	491.457642	-475.242279	-504.463684	432.999725	-475.861786	-370.992065	381.148102	-463.720337	-538.145630	262.702911	-476.772186	-658.989990	256.235291	-496.007324	-552.137939	167.274399	-461.362946	-719.821533	131.582733	-431.569794	-611.617798	43.900257	-413.816895	-360.744659	511.588806	-187.659286	-399.747040	426.090210	-204.979401	-259.373810	449.801544	-207.497452	-284.234589	283.409058	-216.754303	-356.929871	190.031082	-181.375641	-225.604141	209.719971	-235.626663	-309.894470	37.874779	-254.359146	-172.586044	64.153687	-284.260162	-478.010315	343.913208	-462.909851	-685.753357	96.253288	-456.097443	-308.883026	353.019165	-229.194214	-260.339172	46.781437	-231.972519	-685.268860	93.861603	-422.289124	-469.129578	329.098633	-414.409088	-268.188385	51.018291	-267.752777	-307.617462	356.135925	-282.916870	-417.657480	621.167962	-248.622455	-423.391336	619.970038	-402.332042	
265	1.320000	-458.886658	1015.820801	-343.743622	-474.380768	836.782776	-336.837158	-341.521301	980.417847	-333.248688	-286.767944	855.727905	-324.570831	-489.384186	959.320496	-260.953247	-346.347565	673.140381	-432.575653	-338.184601	675.202209	-222.664551	-495.234406	728.169312	-324.031525	-417.203247	490.936798	-475.186737	-493.610077	431.263702	-476.929504	-359.450226	381.408112	-463.569427	-528.994934	263.056549	-477.459747	-650.150330	259.926941	-495.039185	-545.310791	168.026306	-462.300842	-713.122314	137.650909	-430.716553	-609.589661	44.060177	-413.898041	-353.053009	511.884247	-187.383453	-392.589355	426.461426	-204.228531	-252.219543	449.483887	-207.991882	-278.221771	283.036621	-217.037903	-351.862732	191.014053	-180.750244	-220.979309	208.434586	-236.541809	-309.046082	38.331219	-254.309448	-170.885895	61.098713	-284.521057	-465.799255	342.488159	-464.106445	-680.722778	100.522156	-455.500580	-302.416168	352.958130	-229.066879	-258.129730	46.062214	-232.356384	-679.838989	97.952156	-421.713440	-457.191467	327.588959	-415.582397	-266.341187	50.397247	-268.043488	-301.603027	355.968109	-282.804382	-409.882573	621.480734	-247.785133	-415.837434	619.976636	-400.914730	
266	1.325000	-452.320526	1015.997253	-342.381226	-467.642639	836.864868	-335.970703	-334.924225	980.664001	-332.300415	-279.987000	856.037048	-323.953186	-482.383270	959.259521	-259.311340	-339.203461	673.168152	-431.269104	-330.685760	675.727295	-222.258438	-488.534180	727.856384	-323.417206	-407.230621	490.473785	-475.177917	-482.505249	429.511383	-478.042053	-347.627319	381.806366	-463.381378	-519.485718	263.547241	-478.122131	-640.874512	263.784119	-493.911133	-538.092041	168.963120	-463.254608	-705.867615	143.823441	-429.787018	-607.142090	44.559750	-413.979919	-345.526276	512.234131	-187.115509	-385.576324	426.891113	-203.460266	-245.228775	449.267059	-208.474365	-272.454376	282.736023	-217.226532	-346.986450	192.096191	-180.042709	-216.584732	207.267639	-237.311188	-308.293243	38.857983	-254.255142	-169.373108	58.365108	-284.582062	-453.223572	341.114471	-465.289276	-675.204041	105.024597	-454.812286	-296.071960	352.964539	-228.907623	-256.080963	45.476620	-232.559616	-673.893433	102.231293	-421.056763	-444.885590	326.153931	-416.736969	-264.638489	49.907436	-268.153503	-295.714386	355.860168	-282.656372	-402.173671	621.896084	-246.975559	-408.389802	620.028448	-399.509399	
267	1.330000	-445.750153	1016.254944	-341.031982	-460.934265	837.036316	-335.140503	-328.326691	980.965759	-331.394623	-273.241577	856.377869	-323.414154	-475.363312	959.282410	-257.674011	-332.193542	673.219604	-430.038391	-323.264130	676.350220	-221.914520	-481.886169	727.606934	-322.821564	-397.153198	490.090576	-475.217255	-471.212769	427.781677	-479.169281	-335.602173	382.361694	-463.179230	-509.633514	264.184601	-478.748352	-631.172729	267.786102	-492.661835	-530.481628	170.088882	-464.200806	-698.072388	150.040436	-428.800049	-604.178589	45.462139	-414.060272	-338.172760	512.637207	-186.848038	-378.706970	427.379669	-202.665924	-238.396927	449.157806	-208.932312	-266.955261	282.484009	-217.309448	-342.353241	193.225937	-179.273346	-212.438919	206.188995	-237.918976	-307.618896	39.429916	-254.195389	-168.049667	55.964260	-284.486023	-440.369202	339.835327	-466.437653	-669.186646	109.737648	-454.052277	-289.834656	353.042053	-228.703964	-254.233994	44.998043	-232.600021	-667.437805	106.681511	-420.339386	-432.283386	324.834015	-417.855316	-263.110199	49.526966	-268.103424	-289.933319	355.814514	-282.460297	-394.548474	622.403704	-246.191298	-401.067642	620.118109	-398.137987	
268	1.335000	-439.176575	1016.590759	-339.701508	-454.256104	837.294556	-334.347961	-321.730469	981.318970	-330.536346	-266.534515	856.746948	-322.956116	-468.328064	959.386902	-256.049438	-325.331299	673.295227	-428.911652	-315.932068	677.065674	-221.621628	-475.286133	727.425537	-322.247864	-387.022339	489.809448	-475.304413	-459.798737	426.113403	-480.279236	-323.455170	383.093994	-462.989471	-499.454895	264.973206	-479.328125	-621.060486	271.902008	-491.334808	-522.479675	171.400711	-465.113190	-689.757019	156.236969	-427.772217	-600.599731	46.813519	-414.133881	-330.999359	513.090454	-186.573746	-371.985443	427.926788	-201.840118	-231.724152	449.150330	-209.352097	-261.747192	282.257172	-217.279831	-338.015900	194.351181	-178.472580	-208.559082	205.168610	-238.352524	-307.010834	40.022739	-254.129242	-166.910065	53.894783	-284.275665	-427.325867	338.691711	-467.532806	-662.661072	114.626778	-453.238770	-283.702240	353.187714	-228.444977	-252.624069	44.601665	-232.506302	-660.478760	111.277390	-419.579071	-419.458984	323.667664	-418.921539	-261.778381	49.236088	-267.925354	-284.253815	355.827698	-282.205261	-387.023485	622.991582	-245.429245	-393.888203	620.237841	-396.823268	
269	1.340000	-432.600922	1017.001160	-338.395142	-447.608002	837.636230	-333.593994	-315.137451	981.719543	-329.730072	-259.867645	857.141785	-322.580383	-461.281342	959.569641	-254.445465	-318.627472	673.395325	-427.915894	-308.700287	677.866760	-221.367279	-468.728790	727.317139	-321.698578	-376.889069	489.652100	-475.437073	-448.328796	424.543823	-481.339813	-311.264465	384.023621	-462.841187	-488.967346	265.912476	-479.852051	-610.558838	276.090912	-489.975586	-514.085754	172.888840	-465.963776	-680.945435	162.344620	-426.716797	-596.308960	48.635696	-414.191986	-324.012451	513.588928	-186.285995	-365.422241	428.531738	-200.981949	-225.216873	449.226959	-209.718445	-256.851074	282.034485	-217.134979	-334.021271	195.425430	-177.675247	-204.959061	204.180542	-238.603378	-306.460846	40.614315	-254.055679	-165.943008	52.144817	-283.989807	-414.182373	337.720367	-468.559387	-655.617859	119.644760	-452.387207	-277.687958	353.392426	-228.121735	-251.274780	44.266178	-232.312378	-653.021606	115.983910	-418.789368	-406.484802	322.689362	-419.923187	-260.653809	49.017635	-267.657074	-278.682892	355.890930	-281.882385	-379.613698	623.646414	-244.685939	-386.866376	620.379639	-395.587783	
